<svg xmlns="http://www.w3.org/2000/svg" width="512px" height="512px" viewBox="0 0 512 512" data-svgdocument="" id="_AJ2mS2f16lJRU8u_R6G0A" class="fl-svgdocument" x="0" y="0" overflow="hidden" data-bbox="124.183 134.277 259.275 247.812" style="">
  <path d="M261.82 11.352L261.82 11.352c2.113-12.375 20.352-10.822 20.344 1.731 c-0.006 11.524 16.075 14.283 19.906 3.414c4.175-11.84 21.889-7.229 19.758 5.145C319.877 33 335.26 38.434 340.873 28.37 c6.115-10.963 22.795-3.425 18.605 8.41c-3.847 10.862 10.397 18.819 17.631 9.851h0.002c7.881-9.773 23.046 0.475 16.914 11.433 c-5.625 10.056 7.068 20.308 15.718 12.689c9.419-8.301 22.633 4.363 14.74 14.127c-7.246 8.96 3.532 21.209 13.342 15.161h0.003 c10.686-6.588 21.568 8.126 12.14 16.415c-8.652 7.61-0.1 21.503 10.588 17.199c11.648-4.687 19.889 11.656 9.195 18.232 c-9.82 6.034-3.736 21.174 7.531 18.74c12.271-2.651 17.629 14.848 5.978 19.522c-10.696 4.292-7.259 20.241 4.255 19.744 c12.544-0.539 14.869 17.616 2.592 20.253c-11.266 2.419-10.572 18.721 0.857 20.18c12.453 1.587 11.679 19.874-0.864 20.402 c-11.516 0.478-13.588 16.662-2.566 20.028c12.007 3.673 8.152 21.563-4.302 19.961c-11.431-1.472-16.208 14.13-5.915 19.311v0.002 c11.216 5.646 4.392 22.63-7.61 18.942c-11.019-3.379-18.363 11.189-9.094 18.039c10.099 7.458 0.502 23.042-10.705 17.386 c-10.287-5.195-19.99 7.925-12.011 16.238c8.693 9.058-3.399 22.797-13.489 15.325c-9.265-6.856-21.041 4.434-14.583 13.977 c7.037 10.397-7.202 21.896-15.885 12.826c-7.969-8.324-21.486 0.813-16.731 11.313c5.177 11.438-10.803 20.362-17.827 9.956 c-6.449-9.553-21.314-2.831-18.404 8.319c3.172 12.146-14.088 18.246-19.248 6.803c-4.744-10.506-20.532-6.392-19.549 5.088 c1.072 12.511-16.968 15.604-20.125 3.451c-2.896-11.156-19.15-9.771-20.123 1.712c-1.059 12.513-19.36 12.513-20.417 0 c-0.974-11.483-17.23-12.868-20.127-1.712c-3.156 12.151-21.194 9.06-20.122-3.451c0.985-11.479-14.806-15.594-19.547-5.088 c-5.163 11.443-22.422 5.345-19.25-6.803c2.91-11.15-11.957-17.872-18.406-8.319c-7.023 10.406-23.003 1.48-17.824-9.956 c4.753-10.5-8.765-19.637-16.736-11.313c-8.68 9.069-22.921-2.429-15.884-12.826c6.458-9.543-5.321-20.833-14.583-13.977 c-10.088 7.472-22.181-6.269-13.488-15.325c7.978-8.313-1.723-21.435-12.011-16.238c-11.205 5.656-20.804-9.928-10.705-17.386l0 0 c9.27-6.85 1.924-21.418-9.094-18.039c-12 3.688-18.825-13.298-7.614-18.942v-0.002c10.294-5.181 5.519-20.781-5.912-19.311 c-12.453 1.604-16.309-16.288-4.302-19.961c11.024-3.366 8.95-19.552-2.564-20.028c-12.543-0.528-13.32-18.815-0.868-20.402 c11.433-1.458 12.126-17.76 0.855-20.18c-12.272-2.637-9.949-20.792 2.595-20.253c11.516 0.497 14.952-15.453 4.257-19.744 c-11.654-4.674-6.295-22.173 5.978-19.522c11.265 2.435 17.348-12.706 7.531-18.74c-10.695-6.576-2.455-22.919 9.191-18.232 c10.693 4.304 19.247-9.589 10.591-17.199c-9.432-8.289 1.454-23.003 12.14-16.415c9.81 6.048 20.59-6.201 13.345-15.161 c-7.893-9.764 5.322-22.428 14.741-14.127c8.647 7.619 21.339-2.633 15.714-12.689c-6.127-10.958 9.035-21.206 16.916-11.433 c7.235 8.968 21.479 1.011 17.633-9.851c-4.189-11.835 12.488-19.373 18.605-8.41c5.615 10.063 20.998 4.629 19.044-6.729 c-2.129-12.374 15.582-16.985 19.757-5.145c3.833 10.869 19.915 8.111 19.909-3.414c-0.009-12.554 18.227-14.106 20.343-1.731 C243.563 22.711 259.879 22.711 261.82 11.352" transform="matrix(0.5212754607200623, 0, 0, 0.49865445494651794, 122.60400390625, 133.116455078125)" fill="#ffecf8" stroke="rgba(10,171,222,1)" stroke-width="1" />
  <path d="M50 95.646c24.854 0 45-20.147 45-45s-20.146-45-45-45s-45 20.147-45 45S25.146 95.646 50 95.646z M50 6.646  c24.262 0 44 19.738 44 44s-19.738 44-44 44s-44-19.738-44-44S25.738 6.646 50 6.646z" transform="matrix(1.6295173168182373, 0, 0, 1.6295173168182373, 174.52413940429688, 185.41644287109375)" stroke="#ffffff" stroke-width="1" fill="#ffffff" />
  <g transform="matrix(4.484644412994385, 0, 0, 4.484644412994385, 184.2523956298828, 178.46371459960938)" fill="rgba(10,171,222,1)">
    <path d="m -55.875 366.19922 a 0.13230489 0.13230489 0 0 0 -0.117188 0.13476 c 0.0018 0.80081 0.654267 1.45115 1.455079 1.45118 0.800811 2e-5 1.453191 -0.65037 1.455078 -1.45118 a 0.13230489 0.13230489 0 1 0 -0.263672 0 c -0.0016 0.65804 -0.533368 1.18752 -1.191406 1.1875 -0.658038 -2e-5 -1.187942 -0.52946 -1.189453 -1.1875 A 0.13230489 0.13230489 0 0 0 -55.875 366.19922 Z" color="#000" font-family="sans-serif" font-weight="400" overflow="visible" fill="rgba(10,171,222,1)" transform="matrix(3.779378652572632, 0, 0, 3.779378652572632, 222.1140899658203, -1371.294677734375)" style="line-height: normal; font-variant-ligatures: normal; font-variant-position: normal; font-variant-caps: normal; font-variant-numeric: normal; font-variant-alternates: normal; font-feature-settings: normal; text-indent: 0px; text-align: start; text-decoration-line: none; text-decoration-style: solid; text-decoration-color: rgb(0, 0, 0); text-transform: none; text-orientation: mixed; isolation: auto; mix-blend-mode: normal;" />
    <path d="m -55.060547 365.56583 a 0.13230489 0.13230489 0 0 1 0.107422 0.0606 c 0.367825 0.55693 1.065395 0.79288 1.695313 0.57226 a 0.13249967 0.13249967 0 1 1 0.08789 0.25 c -0.743056 0.26025 -1.570017 -0.0188 -2.003906 -0.67578 a 0.13230489 0.13230489 0 0 1 0.113281 -0.20703 z" color="#000" font-family="sans-serif" font-weight="400" overflow="visible" fill="rgba(10,171,222,1)" transform="matrix(3.779378652572632, 0, 0, 3.779378652572632, 222.1140899658203, -1371.294677734375)" style="line-height: normal; font-variant-ligatures: normal; font-variant-position: normal; font-variant-caps: normal; font-variant-numeric: normal; font-variant-alternates: normal; font-feature-settings: normal; text-indent: 0px; text-align: start; text-decoration-line: none; text-decoration-style: solid; text-decoration-color: rgb(0, 0, 0); text-transform: none; text-orientation: mixed; isolation: auto; mix-blend-mode: normal;" />
    <path d="M-54.826172 365.99219c-.277239.26686-.636691.43376-1.019531.47265-.176055.0186-.203459-.24572-.02734-.26367.323983-.0329.628665-.1726.863281-.39844.141237.11609.10204.0891.18359.18946zM-53.478516 364.23828l-.132812.22852c.553017.32046.925796.91569.925781 1.60156.000265.882.002 2.64648.002 2.64648h.263672c0 0 .000265-1.76442 0-2.64648.000017-.78185-.426947-1.46405-1.058594-1.83008z" color="#000" font-family="sans-serif" font-weight="400" overflow="visible" fill="rgba(10,171,222,1)" transform="matrix(3.779378652572632, 0, 0, 3.779378652572632, 222.1140899658203, -1371.294677734375)" style="line-height: normal; font-variant-ligatures: normal; font-variant-position: normal; font-variant-caps: normal; font-variant-numeric: normal; font-variant-alternates: normal; font-feature-settings: normal; text-indent: 0px; text-align: start; text-decoration-line: none; text-decoration-style: solid; text-decoration-color: rgb(0, 0, 0); text-transform: none; text-orientation: mixed; isolation: auto; mix-blend-mode: normal;" />
    <path d="m -55.595703 364.23828 c -0.631621 0.36604 -1.056556 1.04824 -1.056641 1.83008 v 2.64648 h 0.263672 v -2.64648 c 7.5e-5 -0.68588 0.372794 -1.2811 0.925781 -1.60156 z" color="#000" font-family="sans-serif" font-weight="400" overflow="visible" fill="rgba(10,171,222,1)" transform="matrix(3.779378652572632, 0, 0, 3.779378652572632, 222.1140899658203, -1371.294677734375)" style="line-height: normal; font-variant-ligatures: normal; font-variant-position: normal; font-variant-caps: normal; font-variant-numeric: normal; font-variant-alternates: normal; font-feature-settings: normal; text-indent: 0px; text-align: start; text-decoration-line: none; text-decoration-style: solid; text-decoration-color: rgb(0, 0, 0); text-transform: none; text-orientation: mixed; isolation: auto; mix-blend-mode: normal;" />
    <path d="M-55.197266 367.52344l-.002.53125c0 .035-.0064.0453-.0332.0684-.02679.0231-.07773.0481-.138672.0684l-.794922.26562c-.216656.0722-.429741.16387-.597656.30859-.167914.14473-.287108.3537-.287109.61133v.92969h.265625v-.92969c.000001-.1821.07064-.3027.195312-.41015.124668-.10745.307299-.19293.507813-.25977l.792969-.26367c.07711-.0257.158476-.0588.228515-.11914.07004-.0604.125-.159.125-.26953l.002-.5293zM-56.138672 369.77148a.13230489.13230489 0 0 0-.117187.13282v.79687a.13230489.13230489 0 1 0 .263671 0v-.79687a.13230489.13230489 0 0 0-.146484-.13282zM-53.875 367.52344l-.263672.002.002.5293c0 .11053.05496.20916.125.26953.07004.0604.14945.0934.226563.11914l.794922.26367c.200513.0668.383144.15232.507812.25977.124668.10745.195313.22805.195313.41015v.92969h.263671V369.377c.000001-.25763-.117241-.4666-.285156-.61133-.167915-.14472-.381-.23637-.597656-.30859l-.794922-.26562c-.06095-.0203-.111883-.0453-.138672-.0684-.02679-.0231-.0332-.0334-.0332-.0684zM-52.964844 369.77148a.13230489.13230489 0 0 0-.117187.13282v.79687a.1328125.1328125 0 1 0 .265625 0v-.79687a.13230489.13230489 0 0 0-.148438-.13282z" color="#000" font-family="sans-serif" font-weight="400" overflow="visible" fill="rgba(10,171,222,1)" transform="matrix(3.779378652572632, 0, 0, 3.779378652572632, 222.1140899658203, -1371.294677734375)" style="line-height: normal; font-variant-ligatures: normal; font-variant-position: normal; font-variant-caps: normal; font-variant-numeric: normal; font-variant-alternates: normal; font-feature-settings: normal; text-indent: 0px; text-align: start; text-decoration-line: none; text-decoration-style: solid; text-decoration-color: rgb(0, 0, 0); text-transform: none; text-orientation: mixed; isolation: auto; mix-blend-mode: normal;" />
    <path d="M-55.490234 368.36914l-.208985.16211c0 0 .159079.2057.376953.41211.217874.20641.485295.43359.785157.43359.299861 0 .569235-.22718.787109-.43359.217874-.20641.376953-.41211.376953-.41211l-.208984-.16211c0 0-.150513.19039-.351563.38086-.201049.19047-.462404.36133-.603515.36133-.141112 0-.402466-.17086-.603516-.36133-.20105-.19047-.349609-.38086-.349609-.38086zM-52.15625 369.90625a.13230489.13230489 0 0 0-.130859.13477v.66015a.13230489.13230489 0 1 0 .263671 0v-.66015a.13230489.13230489 0 0 0-.132812-.13477zM-56.919922 369.90625a.13230489.13230489 0 0 0-.130859.13477v.66015a.1328125.1328125 0 1 0 .265625 0v-.66015a.13230489.13230489 0 0 0-.134766-.13477z" color="#000" font-family="sans-serif" font-weight="400" overflow="visible" fill="rgba(10,171,222,1)" transform="matrix(3.779378652572632, 0, 0, 3.779378652572632, 222.1140899658203, -1371.294677734375)" style="line-height: normal; font-variant-ligatures: normal; font-variant-position: normal; font-variant-caps: normal; font-variant-numeric: normal; font-variant-alternates: normal; font-feature-settings: normal; text-indent: 0px; text-align: start; text-decoration-line: none; text-decoration-style: solid; text-decoration-color: rgb(0, 0, 0); text-transform: none; text-orientation: mixed; isolation: auto; mix-blend-mode: normal;" />
    <path fill="rgba(255,103,199,1)" d="m -1967.9121 426.35352 a 0.50004998 0.50004998 0 0 0 -0.051 0.002 0.50004998 0.50004998 0 0 0 -0.3379 0.18555 l -1.7656 2.21484 -2.1543 -0.86328 a 0.50004998 0.50004998 0 0 0 -0.6582 0.63476 l 1.5059 4 a 0.50004998 0.50004998 0 0 0 0.4648 0.32422 h 6.002 a 0.50004998 0.50004998 0 0 0 0.4648 -0.32422 l 1.498 -4 a 0.50004998 0.50004998 0 0 0 -0.6484 -0.63476 l -2.1562 0.86328 -1.7715 -2.21484 a 0.50004998 0.50004998 0 0 0 -0.3926 -0.1875 z" color="#000" font-family="sans-serif" font-weight="400" overflow="visible" transform="matrix(0.9999476671218872, 0, 0, 0.9999476671218872, 1983.833740234375, -424.6056213378906)" style="line-height: normal; font-variant-ligatures: normal; font-variant-position: normal; font-variant-caps: normal; font-variant-numeric: normal; font-variant-alternates: normal; font-feature-settings: normal; text-indent: 0px; text-align: start; text-decoration-line: none; text-decoration-style: solid; text-decoration-color: rgb(0, 0, 0); text-transform: none; text-orientation: mixed; isolation: auto; mix-blend-mode: normal;" />
  </g>
  <g transform="matrix(1.761120319366455, 0, 0, 1.761120319366455, 241.91165161132812, 288.66510009765625)" stroke="#ff67c7" stroke-width="1">
    <path d="M4.996 2.004C3.98 1.95 2.961 2.29 2.211 3.04.71 4.544.867 7.068 2.473 8.676l.513.513 4.662 4.666a.5.5 0 0 0 .706 0l4.66-4.666.513-.513c1.606-1.608 1.762-4.132.26-5.635-1.501-1.503-4.02-1.343-5.625.264L8 3.467l-.162-.162C7.035 2.5 6.013 2.058 4.996 2.004zm6.049.994V3c.76-.043 1.497.21 2.037.75 1.08 1.08 1.004 2.951-.26 4.217l-.517.517L8 12.793 3.695 8.484l-.515-.517C1.916 6.7 1.84 4.83 2.92 3.75c.54-.54 1.261-.788 2.023-.748.762.04 1.554.375 2.186 1.008l.52.517a.5.5 0 0 0 .706 0l.516-.52c.632-.632 1.414-.967 2.174-1.009z" color="#000" font-family="sans-serif" font-weight="400" overflow="visible" transform="matrix(1, 0, 0, 1, 0, 0)" stroke="#ff67c7" stroke-width="1" style="line-height: normal; text-indent: 0px; text-align: start; text-decoration-line: none; text-decoration-style: solid; text-decoration-color: rgb(0, 0, 0); text-transform: none; isolation: auto; mix-blend-mode: normal;" />
  </g>
  <path text="TECH*DIVA" fill="#ff67c7" space="preserve" text-anchor="middle" offset="0.5" font-scale="contain" font-size="40" font-family="Open Sans Condensed" transform="matrix(1.0973988771438599, 0.01806291565299034, -0.01727977953851223, 1.0498194694519043, 241.81687927246094, 286.8422546386719)" path="M-53.01185962097966 37.164005169983454C-122.36549083861262 -142.2671191988153 143.57127403615632 -153.08202623106706 77.12676445204735 34.924874381844006" font-style="normal" font-weight="700" dy="2" data-fl-textpath="" d="M-69.52-79.569L-49.199-67.014L-51.981-62.511L-72.302-75.066L-75.176-70.414L-79.148-72.868L-70.616-86.675L-66.645-84.222L-69.52-79.569ZM-38.714-85.996L-35.421-82.715L-44.505-73.596L-64.734-93.749L-55.651-102.868L-52.399-99.628L-57.733-94.273L-52.918-89.477L-47.97-94.444L-44.704-91.191L-49.653-86.223L-44.049-80.641L-38.714-85.996ZM-37.102-110.691L-37.102-110.691Q-39.05-109.496 -38.775-106.526Q-38.501-103.556 -36.009-99.493L-36.009-99.493Q-30.823-91.035 -26.411-93.74L-26.411-93.74Q-24.479-94.925 -23.12-97.454L-23.12-97.454L-20.649-93.424Q-21.706-91.15 -24.487-89.445L-24.487-89.445Q-28.599-86.923 -32.812-88.842Q-37.024-90.761 -40.659-96.688L-40.659-96.688Q-44.293-102.616 -44.052-107.323Q-43.811-112.03 -39.765-114.511L-39.765-114.511Q-38.433-115.328 -36.985-115.712Q-35.536-116.096 -33.576-116.038L-33.576-116.038L-32.818-111.439Q-33.884-111.496 -34.994-111.4Q-36.103-111.304 -37.102-110.691ZM-8.013-126.508L 0.037-99.112L-5.06-97.614L-8.589-109.626L-15.317-107.649L-11.787-95.637L-16.884-94.14L-24.935-121.536L-19.838-123.034L-16.638-112.146L-9.911-114.123L-13.11-125.01L-8.013-126.508ZM 8.198-130.07L 12.845-130.2L 12.291-124.186L 18.315-126.036L 19.083-121.661L 13.529-121.153L 17.276-116.452L 13.45-114.215L 10.789-119.22L 8.648-114.08L 4.605-116.096L 8.023-120.999L 2.525-121.274L 3.126-125.609L 9.089-124.096L 8.198-130.07ZM 43.802-109.707L 43.802-109.707Q 42.167-102.829  38.499-99.856Q 34.831-96.884  29.567-98.136L 29.567-98.136L 22.765-99.753L 29.37-127.533L 36.8-125.767Q 41.645-124.615  43.492-120.391Q 45.339-116.168  43.802-109.707ZM 38.465-110.816L 38.465-110.816Q 40.679-120.127  35.548-121.346L 35.548-121.346L 33.477-121.839L 29.009-103.046L 30.681-102.649Q 33.512-101.976  35.424-104.021Q 37.335-106.065  38.465-110.816ZM 49.051-90.968L 44.583-93.212L 57.397-118.73L 61.865-116.486L 49.051-90.968ZM 67.763-91.444L 81.732-102.521L 85.854-99.107L 62.464-81.403L 57.259-85.714L 70.332-111.965L 74.453-108.551L 66.199-92.74Q 65.17-90.702  62.892-87.186L 62.892-87.186Q 65.463-89.647  67.763-91.444L 67.763-91.444ZM 78.797-60.025L 75.856-64.473L 80.963-69.816L 76.858-76.023L 69.942-73.417L 67.012-77.848L 94.827-87.765L 98.803-81.753L 78.797-60.025ZM 81.366-77.74L 84.34-73.244L 89.038-78.177Q 89.468-78.625  91.232-80.365Q 92.997-82.106  93.627-82.64L 93.627-82.64Q 92.086-81.925  90.184-81.136Q 88.283-80.347  81.366-77.74L 81.366-77.74Z" style="" />
  <path id="_tUlG4VXOT1r2CLhGDE5iL" d="M17.689 71.248h61.126V30.737l-61.126-0.222V71.248z M89.58 75.465c0 0.891-2.674 1.612-3.491 1.612H9.741      c-0.818 0-3.491-0.722-3.491-1.612l-2.022-2.219c0-0.89 0.65-1.588 1.469-1.588h7.536V30.489c0-2.432 2.046-4.43 4.575-4.43      h60.891c2.525 0 4.573 1.998 4.573 4.43v41.169h6.863c0.818 0 1.468 0.698 1.468 1.588L89.58 75.465z" fill="rgba(255,150,113,1)" transform="matrix(1.405740737915039, 0, 0, 1.265742540359497, 188.6432342529297, 226.03225708007812)" />
  <path text="#code_confidence" fill="#0aabde" space="preserve" text-anchor="middle" offset="0.5" font-scale="contain" font-size="51" font-family="Open Sans" transform="matrix(0.26521924138069153, 0, 0, 0.2736290693283081, 256.1736755371094, 338.0747985839844)" path="M-437.16796875 0C-218.583984375 0 218.583984375 0 437.16796875 0" font-weight="700" font-style="normal" data-fl-textpath="" d="M-194.687-21.018L-201.634-21.018L-202.805-15.24L-196.38-15.24L-196.38-10.11L-203.776-10.11L-205.693 0L-211.172 0L-209.23-10.11L-214.061-10.11L-215.953 0L-221.307 0L-219.464-10.11L-225.391-10.11L-225.391-15.24L-218.493-15.24L-217.323-21.018L-223.598-21.018L-223.598-26.222L-216.401-26.222L-214.484-36.357L-209.03-36.357L-210.948-26.222L-206.017-26.222L-204.075-36.357L-198.721-36.357L-200.663-26.222L-194.687-26.222L-194.687-21.018ZM-211.919-21.018L-213.089-15.24L-208.209-15.24L-207.038-21.018L-211.919-21.018ZM-178.276 0.498L-178.276 0.498Q-191.275 0.498 -191.275-13.771L-191.275-13.771Q-191.275-20.868 -187.739-24.616Q-184.203-28.364 -177.604-28.364L-177.604-28.364Q-172.772-28.364 -168.938-26.471L-168.938-26.471L-171.179-20.594Q-172.972-21.316 -174.516-21.777Q-176.06-22.238 -177.604-22.238L-177.604-22.238Q-183.53-22.238 -183.53-13.821L-183.53-13.821Q-183.53-5.653 -177.604-5.653L-177.604-5.653Q-175.412-5.653 -173.544-6.238Q-171.677-6.823 -169.809-8.068L-169.809-8.068L-169.809-1.569Q-171.652-0.398 -173.532 0.05Q-175.412 0.498 -178.276 0.498ZM-157.308-13.97L-157.308-13.97Q-157.308-9.836 -155.951-7.72Q-154.594-5.603 -151.531-5.603L-151.531-5.603Q-148.493-5.603 -147.16-7.707Q-145.828-9.812 -145.828-13.97L-145.828-13.97Q-145.828-18.104 -147.173-20.171Q-148.518-22.238 -151.581-22.238L-151.581-22.238Q-154.619-22.238 -155.963-20.183Q-157.308-18.129 -157.308-13.97ZM-138.059-13.97L-138.059-13.97Q-138.059-7.172 -141.645-3.337Q-145.23 0.498 -151.63 0.498L-151.63 0.498Q-155.64 0.498 -158.703-1.258Q-161.766-3.013 -163.409-6.3Q-165.053-9.587 -165.053-13.97L-165.053-13.97Q-165.053-20.794 -161.492-24.579Q-157.931-28.364 -151.481-28.364L-151.481-28.364Q-147.472-28.364 -144.409-26.621Q-141.346-24.877 -139.702-21.615Q-138.059-18.353 -138.059-13.97ZM-122.968 0.498L-122.968 0.498Q-127.874 0.498 -130.675-3.312Q-133.477-7.122 -133.477-13.871L-133.477-13.871Q-133.477-20.719 -130.625-24.541Q-127.774-28.364 -122.769-28.364L-122.769-28.364Q-117.514-28.364 -114.75-24.28L-114.75-24.28L-114.501-24.28Q-115.074-27.393 -115.074-29.833L-115.074-29.833L-115.074-38.748L-107.454-38.748L-107.454 0L-113.281 0L-114.75-3.611L-115.074-3.611Q-117.664 0.498 -122.968 0.498ZM-120.303-5.553L-120.303-5.553Q-117.39-5.553 -116.032-7.247Q-114.675-8.94 -114.551-12.999L-114.551-12.999L-114.551-13.821Q-114.551-18.303 -115.933-20.246Q-117.315-22.188 -120.428-22.188L-120.428-22.188Q-122.968-22.188 -124.375-20.034Q-125.782-17.88 -125.782-13.771L-125.782-13.771Q-125.782-9.662 -124.362-7.608Q-122.943-5.553 -120.303-5.553ZM-87.98-22.96L-87.98-22.96Q-90.396-22.96 -91.765-21.428Q-93.135-19.897 -93.334-17.083L-93.334-17.083L-82.676-17.083Q-82.726-19.897 -84.145-21.428Q-85.564-22.96 -87.98-22.96ZM-86.909 0.498L-86.909 0.498Q-93.633 0.498 -97.418-3.212Q-101.203-6.923 -101.203-13.721L-101.203-13.721Q-101.203-20.719 -97.704-24.541Q-94.206-28.364 -88.03-28.364L-88.03-28.364Q-82.128-28.364 -78.841-25.002Q-75.554-21.64 -75.554-15.713L-75.554-15.713L-75.554-12.028L-93.508-12.028Q-93.384-8.79 -91.591-6.973Q-89.798-5.155 -86.561-5.155L-86.561-5.155Q-84.045-5.155 -81.804-5.678Q-79.563-6.201 -77.123-7.346L-77.123-7.346L-77.123-1.469Q-79.115-0.473 -81.381 0.013Q-83.647 0.498 -86.909 0.498ZM-52.295 4.582L-52.295 8.068L-73.462 8.068L-73.462 4.582L-52.295 4.582ZM-37.105 0.498L-37.105 0.498Q-50.104 0.498 -50.104-13.771L-50.104-13.771Q-50.104-20.868 -46.567-24.616Q-43.031-28.364 -36.432-28.364L-36.432-28.364Q-31.601-28.364 -27.766-26.471L-27.766-26.471L-30.007-20.594Q-31.8-21.316 -33.344-21.777Q-34.888-22.238 -36.432-22.238L-36.432-22.238Q-42.359-22.238 -42.359-13.821L-42.359-13.821Q-42.359-5.653 -36.432-5.653L-36.432-5.653Q-34.241-5.653 -32.373-6.238Q-30.505-6.823 -28.638-8.068L-28.638-8.068L-28.638-1.569Q-30.48-0.398 -32.361 0.05Q-34.241 0.498 -37.105 0.498ZM-16.137-13.97L-16.137-13.97Q-16.137-9.836 -14.78-7.72Q-13.422-5.603 -10.359-5.603L-10.359-5.603Q-7.321-5.603 -5.989-7.707Q-4.657-9.812 -4.657-13.97L-4.657-13.97Q-4.657-18.104 -6.001-20.171Q-7.346-22.238 -10.409-22.238L-10.409-22.238Q-13.447-22.238 -14.792-20.183Q-16.137-18.129 -16.137-13.97ZM 3.113-13.97L 3.113-13.97Q 3.113-7.172 -0.473-3.337Q-4.059 0.498 -10.459 0.498L-10.459 0.498Q-14.468 0.498 -17.531-1.258Q-20.594-3.013 -22.238-6.3Q-23.881-9.587 -23.881-13.97L-23.881-13.97Q-23.881-20.794 -20.32-24.579Q-16.759-28.364 -10.31-28.364L-10.31-28.364Q-6.3-28.364 -3.237-26.621Q-0.174-24.877  1.469-21.615Q 3.113-18.353  3.113-13.97ZM 35.087-18.154L 35.087 0L 27.492 0L 27.492-16.261Q 27.492-19.274  26.421-20.781Q 25.351-22.288  23.01-22.288L 23.01-22.288Q 19.822-22.288  18.403-20.158Q 16.983-18.029  16.983-13.099L 16.983-13.099L 16.983 0L 9.388 0L 9.388-27.841L 15.19-27.841L 16.211-24.28L 16.635-24.28Q 17.905-26.297  20.134-27.33Q 22.362-28.364  25.201-28.364L 25.201-28.364Q 30.057-28.364  32.572-25.737Q 35.087-23.109  35.087-18.154L 35.087-18.154ZM 58.296-27.841L 58.296-22.138L 51.722-22.138L 51.722 0L 44.127 0L 44.127-22.138L 39.943-22.138L 39.943-25.799L 44.127-27.841L 44.127-29.883Q 44.127-34.639  46.468-36.831Q 48.809-39.022  53.963-39.022L 53.963-39.022Q 57.898-39.022  60.961-37.852L 60.961-37.852L 59.019-32.273Q 56.728-32.996  54.785-32.996L 54.785-32.996Q 53.166-32.996  52.444-32.037Q 51.722-31.078  51.722-29.584L 51.722-29.584L 51.722-27.841L 58.296-27.841ZM 62.331-35.038L 62.331-35.038Q 62.331-38.748  66.464-38.748L 66.464-38.748Q 70.598-38.748  70.598-35.038L 70.598-35.038Q 70.598-33.27  69.565-32.286Q 68.531-31.302  66.464-31.302L 66.464-31.302Q 62.331-31.302  62.331-35.038ZM 70.25-27.841L 70.25 0L 62.654 0L 62.654-27.841L 70.25-27.841ZM 87.034 0.498L 87.034 0.498Q 82.128 0.498  79.326-3.312Q 76.525-7.122  76.525-13.871L 76.525-13.871Q 76.525-20.719  79.376-24.541Q 82.228-28.364  87.233-28.364L 87.233-28.364Q 92.487-28.364  95.251-24.28L 95.251-24.28L 95.5-24.28Q 94.928-27.393  94.928-29.833L 94.928-29.833L 94.928-38.748L 102.548-38.748L 102.548 0L 96.721 0L 95.251-3.611L 94.928-3.611Q 92.338 0.498  87.034 0.498ZM 89.698-5.553L 89.698-5.553Q 92.612-5.553  93.969-7.247Q 95.326-8.94  95.451-12.999L 95.451-12.999L 95.451-13.821Q 95.451-18.303  94.069-20.246Q 92.686-22.188  89.574-22.188L 89.574-22.188Q 87.034-22.188  85.627-20.034Q 84.22-17.88  84.22-13.771L 84.22-13.771Q 84.22-9.662  85.639-7.608Q 87.059-5.553  89.698-5.553ZM 122.022-22.96L 122.022-22.96Q 119.606-22.96  118.236-21.428Q 116.867-19.897  116.668-17.083L 116.668-17.083L 127.326-17.083Q 127.276-19.897  125.856-21.428Q 124.437-22.96  122.022-22.96ZM 123.092 0.498L 123.092 0.498Q 116.369 0.498  112.584-3.212Q 108.798-6.923  108.798-13.721L 108.798-13.721Q 108.798-20.719  112.297-24.541Q 115.796-28.364  121.972-28.364L 121.972-28.364Q 127.874-28.364  131.161-25.002Q 134.448-21.64  134.448-15.713L 134.448-15.713L 134.448-12.028L 116.493-12.028Q 116.618-8.79  118.411-6.973Q 120.204-5.155  123.441-5.155L 123.441-5.155Q 125.956-5.155  128.197-5.678Q 130.439-6.201  132.879-7.346L 132.879-7.346L 132.879-1.469Q 130.887-0.473  128.621 0.013Q 126.355 0.498  123.092 0.498ZM 166.323-18.154L 166.323 0L 158.728 0L 158.728-16.261Q 158.728-19.274  157.657-20.781Q 156.586-22.288  154.245-22.288L 154.245-22.288Q 151.058-22.288  149.638-20.158Q 148.219-18.029  148.219-13.099L 148.219-13.099L 148.219 0L 140.624 0L 140.624-27.841L 146.426-27.841L 147.447-24.28L 147.87-24.28Q 149.14-26.297  151.369-27.33Q 153.598-28.364  156.437-28.364L 156.437-28.364Q 161.292-28.364  163.808-25.737Q 166.323-23.109  166.323-18.154L 166.323-18.154ZM 185.448 0.498L 185.448 0.498Q 172.449 0.498  172.449-13.771L 172.449-13.771Q 172.449-20.868  175.985-24.616Q 179.521-28.364  186.12-28.364L 186.12-28.364Q 190.951-28.364  194.786-26.471L 194.786-26.471L 192.545-20.594Q 190.752-21.316  189.208-21.777Q 187.664-22.238  186.12-22.238L 186.12-22.238Q 180.193-22.238  180.193-13.821L 180.193-13.821Q 180.193-5.653  186.12-5.653L 186.12-5.653Q 188.312-5.653  190.179-6.238Q 192.047-6.823  193.915-8.068L 193.915-8.068L 193.915-1.569Q 192.072-0.398  190.192 0.05Q 188.312 0.498  185.448 0.498ZM 211.894-22.96L 211.894-22.96Q 209.478-22.96  208.109-21.428Q 206.739-19.897  206.54-17.083L 206.54-17.083L 217.198-17.083Q 217.148-19.897  215.729-21.428Q 214.31-22.96  211.894-22.96ZM 212.965 0.498L 212.965 0.498Q 206.241 0.498  202.456-3.212Q 198.671-6.923  198.671-13.721L 198.671-13.721Q 198.671-20.719  202.17-24.541Q 205.668-28.364  211.844-28.364L 211.844-28.364Q 217.746-28.364  221.033-25.002Q 224.32-21.64  224.32-15.713L 224.32-15.713L 224.32-12.028L 206.366-12.028Q 206.49-8.79  208.283-6.973Q 210.076-5.155  213.313-5.155L 213.313-5.155Q 215.829-5.155  218.07-5.678Q 220.311-6.201  222.751-7.346L 222.751-7.346L 222.751-1.469Q 220.759-0.473  218.493 0.013Q 216.227 0.498  212.965 0.498Z" />
  <path text="&lt; you belong here &gt;" fill="#ff67c7" space="preserve" text-anchor="middle" offset="0.5" font-scale="contain" font-size="51" font-family="Open Sans" transform="matrix(0.26521924138069153, 0, 0, 0.2736290693283081, 255.92776489257812, 354.8383483886719)" path="M-437.16796875 0C-218.583984375 0 218.583984375 0 437.16796875 0" font-weight="400" font-style="italic" data-fl-textpath="" d="M-195.023-9.787L-195.023-6.026L-217.908-16.535L-217.908-18.976L-195.023-30.904L-195.023-27.193L-213.625-17.955L-195.023-9.787ZM-173.009 0.448L-177.143-27.293L-172.959-27.293L-171.116-13.721Q-170.867-12.003 -170.631-8.654Q-170.394-5.304 -170.394-3.262L-170.394-3.262L-170.245-3.262Q-169.373-5.429 -168.078-8.243Q-166.783-11.057 -166.161-12.127L-166.161-12.127L-158.068-27.293L-153.635-27.293L-170.967 4.632Q-173.283 8.915 -175.549 10.584Q-177.815 12.252-181.003 12.252L-181.003 12.252Q-182.796 12.252-184.489 11.729L-184.489 11.729L-184.489 8.367Q-182.92 8.815-181.227 8.815L-181.227 8.815Q-179.185 8.815 -177.728 7.558Q-176.271 6.3 -174.902 3.835L-174.902 3.835L-173.009 0.448ZM-140.013-27.642L-140.013-27.642Q-135.282-27.642 -132.543-24.84Q-129.803-22.039 -129.803-17.133L-129.803-17.133Q-129.803-12.451 -131.596-8.293Q-133.389-4.134 -136.452-1.868Q-139.515 0.398 -143.375 0.398L-143.375 0.398Q-148.157 0.398 -150.871-2.416Q-153.585-5.229 -153.585-10.11L-153.585-10.11Q-153.585-14.842 -151.767-19.013Q-149.949-23.184 -146.862-25.413Q-143.774-27.642 -140.013-27.642ZM-134.136-17.706L-134.136-17.706Q-134.136-20.569 -135.693-22.35Q-137.249-24.13 -139.914-24.13L-139.914-24.13Q-142.628-24.13 -144.782-22.288Q-146.936-20.445 -148.119-17.17Q-149.302-13.896 -149.302-9.886L-149.302-9.886Q-149.302-6.624 -147.721-4.843Q-146.139-3.063 -143.176-3.063L-143.176-3.063Q-140.586-3.063 -138.519-4.881Q-136.452-6.699 -135.294-10.048Q-134.136-13.398 -134.136-17.706ZM-120.415-27.293L-116.182-27.293L-119.917-9.986Q-120.365-7.769 -120.365-6.524L-120.365-6.524Q-120.365-2.963 -116.705-2.963L-116.705-2.963Q-114.513-2.963 -112.397-4.457Q-110.28-5.952 -108.661-8.741Q-107.043-11.53 -106.196-15.464L-106.196-15.464L-103.706-27.293L-99.572-27.293L-105.324 0L-108.786 0L-108.238-5.055L-108.537-5.055Q-110.977-1.942 -113.194-0.722Q-115.41 0.498 -117.776 0.498L-117.776 0.498Q-120.963 0.498 -122.781-1.233Q-124.599-2.963 -124.599-6.176L-124.599-6.176Q-124.599-7.72 -124.051-10.459L-124.051-10.459L-120.415-27.293ZM-71.158 0.498L-71.158 0.498Q-73.574 0.498 -75.404-0.772Q-77.235-2.042 -78.156-4.233L-78.156-4.233L-78.405-4.233L-80.148 0L-83.261 0L-75.043-38.748L-70.86-38.748Q-72.13-32.722 -72.814-29.522Q-73.499-26.322 -74.695-22.039L-74.695-22.039L-74.47-22.039Q-72.155-24.977 -69.901-26.359Q-67.647-27.741 -65.257-27.741L-65.257-27.741Q-61.745-27.741 -59.778-25.276Q-57.811-22.811 -57.811-18.502L-57.811-18.502Q-57.811-13.298 -59.517-8.878Q-61.222-4.457 -64.273-1.98Q-67.324 0.498 -71.158 0.498ZM-66.527-24.28L-66.527-24.28Q-68.917-24.28 -71.395-21.914Q-73.873-19.548 -75.33-15.962Q-76.786-12.377 -76.786-8.616L-76.786-8.616Q-76.786-5.877 -75.404-4.42Q-74.022-2.963 -71.407-2.963L-71.407-2.963Q-68.942-2.963 -66.813-4.981Q-64.684-6.998 -63.389-10.72Q-62.094-14.443 -62.094-18.627L-62.094-18.627Q-62.094-24.28 -66.527-24.28ZM-43.044 0.498L-43.044 0.498Q-47.626 0.498 -50.24-2.216Q-52.855-4.931 -52.855-9.737L-52.855-9.737Q-52.855-14.418 -51-18.714Q-49.145-23.01 -46.082-25.4Q-43.019-27.791 -39.333-27.791L-39.333-27.791Q-35.523-27.791 -33.606-26.135Q-31.688-24.479 -31.688-21.516L-31.688-21.516Q-31.688-17.033 -35.822-14.481Q-39.956-11.928 -47.651-11.928L-47.651-11.928L-48.472-11.928L-48.572-9.936Q-48.572-6.674 -47.041-4.843Q-45.509-3.013 -42.297-3.013L-42.297-3.013Q-40.728-3.013 -39.072-3.461Q-37.416-3.91 -34.95-5.105L-34.95-5.105L-34.95-1.469Q-37.291-0.373 -39.084 0.062Q-40.877 0.498 -43.044 0.498ZM-39.582-24.23L-39.582-24.23Q-42.147-24.23 -44.401-21.889Q-46.655-19.548 -47.85-15.39L-47.85-15.39L-47.551-15.39Q-41.873-15.39 -38.848-16.871Q-35.822-18.353 -35.822-21.167L-35.822-21.167Q-35.822-22.487 -36.731-23.358Q-37.64-24.23 -39.582-24.23ZM-16.274-38.748L-24.541 0L-28.725 0L-20.457-38.748L-16.274-38.748ZM-1.183-27.642L-1.183-27.642Q 3.549-27.642  6.288-24.84Q 9.027-22.039  9.027-17.133L 9.027-17.133Q 9.027-12.451  7.234-8.293Q 5.441-4.134  2.378-1.868Q-0.685 0.398 -4.545 0.398L-4.545 0.398Q-9.326 0.398 -12.04-2.416Q-14.755-5.229 -14.755-10.11L-14.755-10.11Q-14.755-14.842 -12.937-19.013Q-11.119-23.184 -8.031-25.413Q-4.943-27.642 -1.183-27.642ZM 4.694-17.706L 4.694-17.706Q 4.694-20.569  3.138-22.35Q 1.581-24.13 -1.083-24.13L-1.083-24.13Q-3.798-24.13 -5.952-22.288Q-8.106-20.445 -9.289-17.17Q-10.471-13.896 -10.471-9.886L-10.471-9.886Q-10.471-6.624 -8.89-4.843Q-7.309-3.063 -4.345-3.063L-4.345-3.063Q-1.756-3.063  0.311-4.881Q 2.378-6.699  3.536-10.048Q 4.694-13.398  4.694-17.706ZM 33.805 0L 29.572 0L 33.257-17.232Q 33.755-19.822  33.755-20.818L 33.755-20.818Q 33.755-22.387  32.871-23.334Q 31.987-24.28  30.045-24.28L 30.045-24.28Q 27.828-24.28  25.724-22.786Q 23.62-21.291  22.014-18.527Q 20.407-15.763  19.586-11.829L 19.586-11.829L 17.071 0L 12.887 0L 18.714-27.293L 22.176-27.293L 21.628-22.238L 21.877-22.238Q 24.267-25.276  26.496-26.533Q 28.725-27.791  31.116-27.791L 31.116-27.791Q 34.278-27.791  36.108-26.06Q 37.939-24.33  37.939-21.217L 37.939-21.217Q 37.939-19.25  37.366-16.734L 37.366-16.734L 33.805 0ZM 59.006-27.293L 68.245-27.293L 67.622-24.628L 62.368-24.031Q 63.389-22.487  63.389-20.096L 63.389-20.096Q 63.389-15.34  60.488-12.513Q 57.587-9.687  52.731-9.687L 52.731-9.687Q 51.361-9.687  50.639-9.886L 50.639-9.886Q 47.177-8.566  47.177-6.624L 47.177-6.624Q 47.177-5.603  47.999-5.267Q 48.821-4.931  50.39-4.731L 50.39-4.731L 53.303-4.383Q 57.811-3.835  59.84-2.191Q 61.87-0.548  61.87 2.64L 61.87 2.64Q 61.87 7.222  58.234 9.737Q 54.598 12.252  47.999 12.252L 47.999 12.252Q 43.168 12.252 40.429 10.422Q 37.69 8.591 37.69 5.254L 37.69 5.254Q 37.69 2.64 39.483 0.722Q 41.276-1.195  45.285-2.54L 45.285-2.54Q 43.342-3.561  43.342-5.553L 43.342-5.553Q 43.342-7.271  44.613-8.504Q 45.883-9.737  48.149-10.808L 48.149-10.808Q 46.58-11.604  45.584-13.161Q 44.588-14.717  44.588-16.784L 44.588-16.784Q 44.588-21.615  47.563-24.703Q 50.539-27.791  55.171-27.791L 55.171-27.791Q 57.113-27.791  59.006-27.293L 59.006-27.293ZM 41.724 4.856L 41.724 4.856Q 41.724 6.773  43.342 7.894Q 44.961 9.015  48.149 9.015L 48.149 9.015Q 52.681 9.015  55.233 7.433Q 57.786 5.852  57.786 2.963L 57.786 2.963Q 57.786 1.419  56.441 0.523Q 55.096-0.373  51.859-0.722L 51.859-0.722L 47.9-1.121Q 44.911-0.498  43.318 1.071Q 41.724 2.64  41.724 4.856ZM 48.647-16.934L 48.647-16.934Q 48.647-14.817  49.767-13.709Q 50.888-12.601  52.88-12.601L 52.88-12.601Q 54.847-12.601  56.317-13.646Q 57.786-14.692  58.57-16.523Q 59.355-18.353  59.355-20.495L 59.355-20.495Q 59.355-22.537  58.259-23.607Q 57.163-24.678  55.121-24.678L 55.121-24.678Q 53.179-24.678  51.722-23.67Q 50.265-22.661  49.456-20.856Q 48.647-19.05  48.647-16.934ZM 101.988 0L 97.804 0L 101.49-17.232Q 101.938-19.573  101.938-20.594L 101.938-20.594Q 101.938-24.28  98.277-24.28L 98.277-24.28Q 96.061-24.28  93.957-22.811Q 91.852-21.341  90.246-18.54Q 88.64-15.738  87.818-11.779L 87.818-11.779L 85.303 0L 81.119 0L 89.337-38.748L 93.521-38.748Q 93.073-36.706  92.662-34.789Q 92.251-32.871  91.815-30.891Q 91.379-28.912  90.869-26.745Q 90.358-24.579  89.686-22.039L 89.686-22.039L 89.96-22.039Q 92.301-25.102  94.579-26.421Q 96.858-27.741  99.348-27.741L 99.348-27.741Q 102.61-27.741  104.391-25.948Q 106.171-24.155  106.171-20.868L 106.171-20.868Q 106.171-19.324  105.598-16.734L 105.598-16.734Q 104.627-11.928  101.988 0L 101.988 0ZM 121.337 0.498L 121.337 0.498Q 116.755 0.498  114.14-2.216Q 111.525-4.931  111.525-9.737L 111.525-9.737Q 111.525-14.418  113.38-18.714Q 115.236-23.01  118.299-25.4Q 121.362-27.791  125.047-27.791L 125.047-27.791Q 128.857-27.791  130.775-26.135Q 132.692-24.479  132.692-21.516L 132.692-21.516Q 132.692-17.033  128.558-14.481Q 124.425-11.928  116.73-11.928L 116.73-11.928L 115.908-11.928L 115.808-9.936Q 115.808-6.674  117.34-4.843Q 118.871-3.013  122.084-3.013L 122.084-3.013Q 123.653-3.013  125.309-3.461Q 126.965-3.91  129.43-5.105L 129.43-5.105L 129.43-1.469Q 127.089-0.373  125.296 0.062Q 123.503 0.498  121.337 0.498ZM 124.798-24.23L 124.798-24.23Q 122.233-24.23  119.98-21.889Q 117.726-19.548  116.531-15.39L 116.531-15.39L 116.829-15.39Q 122.507-15.39  125.533-16.871Q 128.558-18.353  128.558-21.167L 128.558-21.167Q 128.558-22.487  127.649-23.358Q 126.741-24.23  124.798-24.23ZM 152.963-27.791L 152.963-27.791Q 154.681-27.791  155.951-27.442L 155.951-27.442L 155.054-23.707Q 153.735-24.031  152.44-24.031L 152.44-24.031Q 150.174-24.031  148.194-22.537Q 146.214-21.043  144.732-18.39Q 143.251-15.738  142.553-12.501L 142.553-12.501L 139.889 0L 135.705 0L 141.532-27.293L 144.994-27.293L 144.446-22.238L 144.695-22.238Q 146.488-24.604  147.658-25.637Q 148.829-26.67  150.111-27.231Q 151.394-27.791  152.963-27.791ZM 166.684 0.498L 166.684 0.498Q 162.102 0.498  159.487-2.216Q 156.872-4.931  156.872-9.737L 156.872-9.737Q 156.872-14.418  158.728-18.714Q 160.583-23.01  163.646-25.4Q 166.709-27.791  170.394-27.791L 170.394-27.791Q 174.204-27.791  176.122-26.135Q 178.039-24.479  178.039-21.516L 178.039-21.516Q 178.039-17.033  173.905-14.481Q 169.772-11.928  162.077-11.928L 162.077-11.928L 161.255-11.928L 161.155-9.936Q 161.155-6.674  162.687-4.843Q 164.218-3.013  167.431-3.013L 167.431-3.013Q 169-3.013  170.656-3.461Q 172.312-3.91  174.777-5.105L 174.777-5.105L 174.777-1.469Q 172.436-0.373  170.643 0.062Q 168.85 0.498  166.684 0.498ZM 170.145-24.23L 170.145-24.23Q 167.58-24.23  165.327-21.889Q 163.073-19.548  161.878-15.39L 161.878-15.39L 162.176-15.39Q 167.854-15.39  170.88-16.871Q 173.905-18.353  173.905-21.167L 173.905-21.167Q 173.905-22.487  172.997-23.358Q 172.088-24.23  170.145-24.23ZM 195.844-6.026L 195.844-9.787L 214.397-17.955L 195.844-27.193L 195.844-30.904L 218.73-18.976L 218.73-16.535L 195.844-6.026Z" style="" />
  <path text="TM" fill="#ff67c7" space="preserve" text-anchor="middle" offset="0.5" font-scale="contain" font-size="12" font-family="Open Sans" transform="matrix(0.5636158773643001, 0.8260370105406116, -0.8260370105406116, 0.5636158773643001, 352.35791777134045, 218.95413353976951)" data-fl-textpath="" d="M-4.922-7.682L-4.922 0L-5.918 0L-5.918-7.682L-8.631-7.682L-8.631-8.566L-2.209-8.566L-2.209-7.682L-4.922-7.682ZM 3.674 0L 2.871 0L-0.035-7.594L-0.082-7.594Q 0-6.691  0-5.449L 0-5.449L 0 0L-0.92 0L-0.92-8.566L 0.58-8.566L 3.293-1.5L 3.34-1.5L 6.076-8.566L 7.564-8.566L 7.564 0L 6.568 0L 6.568-5.519Q 6.568-6.469  6.65-7.582L 6.65-7.582L 6.604-7.582L 3.674 0Z" style="" font-style="normal" font-weight="400" />
</svg>